<?xml version="1.0" standalone="no"?>
<!DOCTYPE svg PUBLIC "-//W3C//DTD SVG 20010904//EN"
 "http://www.w3.org/TR/2001/REC-SVG-20010904/DTD/svg10.dtd">
<svg version="1.0" xmlns="http://www.w3.org/2000/svg"
 width="240.000000pt" height="240.000000pt" viewBox="0 0 240.000000 240.000000"
 preserveAspectRatio="xMidYMid meet">
<metadata>
Created by potrace 1.11, written by Peter Selinger 2001-2013
</metadata>
<g transform="translate(0.000000,240.000000) scale(0.100000,-0.100000)"
fill="#000000" stroke="none">
<path d="M200 1200 l0 -1200 1000 0 1000 0 0 1200 0 1200 -1000 0 -1000 0 0
-1200z m1800 0 l0 -1000 -800 0 -800 0 0 1000 0 1000 800 0 800 0 0 -1000z"/>
<path d="M500 1850 l0 -250 700 0 700 0 0 250 0 250 -700 0 -700 0 0 -250z"/>
<path d="M500 1250 l0 -150 200 0 200 0 0 150 0 150 -200 0 -200 0 0 -150z"/>
<path d="M1000 1250 l0 -150 200 0 200 0 0 150 0 150 -200 0 -200 0 0 -150z"/>
<path d="M1500 1250 l0 -150 200 0 200 0 0 150 0 150 -200 0 -200 0 0 -150z"/>
<path d="M500 850 l0 -150 200 0 200 0 0 150 0 150 -200 0 -200 0 0 -150z"/>
<path d="M1000 850 l0 -150 200 0 200 0 0 150 0 150 -200 0 -200 0 0 -150z"/>
<path d="M1500 650 l0 -350 200 0 200 0 0 350 0 350 -200 0 -200 0 0 -350z"/>
<path d="M500 450 l0 -150 200 0 200 0 0 150 0 150 -200 0 -200 0 0 -150z"/>
<path d="M1000 450 l0 -150 200 0 200 0 0 150 0 150 -200 0 -200 0 0 -150z"/>
</g>
</svg>
